# AST/ASF file generated using VICON BodyLanguage
# -----------------------------------------------
:version 1.10
:name VICON
:units
  mass 1.0
  length 0.45
  angle deg
:documentation
   .ast/.asf automatically generated from VICON data using
   VICON BodyBuilder and BodyLanguage model FoxedUp or BRILLIANT.MOD
:root
   order TX TY TZ RX RY RZ
   axis XYZ
   position 0 0 0  
   orientation 0 0 0 
:bonedata
  begin
     id 1 
     name lhipjoint
     direction 0.588788 -0.725889 0.355548 
     length 2.37778 
     axis 0 0 0  XYZ
  end
  begin
     id 2 
     name lfemur
     direction 0.34202 -0.939693 0  
     length 6.86393  
     axis 0 0 20  XYZ
    dof rx ry rz
    limits (-160.0 20.0)
           (-70.0 70.0)
           (-60.0 70.0)
  end
  begin
     id 3 
     name ltibia
     direction 0.34202 -0.939693 0   
     length 7.32851   
     axis 0 0 20   XYZ
    dof rx
    limits (-10.0 170.0)
  end
  begin
     id 4 
     name lfoot
     direction 0.0626533 -0.172138 0.983078   
     length 1.98929   
     axis -90 7.62852e-016 20   XYZ
    dof rx rz
    limits (-45.0 90.0)
           (-70.0 20.0)
  end
  begin
     id 5 
     name ltoes
     direction 1.53647e-011 -4.21734e-011 1   
     length 1.00479   
     axis -90 7.62852e-016 20   XYZ
    dof rx
    limits (-90.0 20.0)
  end
  begin
     id 6 
     name rhipjoint
     direction -0.59141 -0.724168 0.354705   
     length 2.38343  
     axis 0 0 0  XYZ 
  end
  begin
     id 7 
     name rfemur
     direction -0.34202 -0.939693 0   
     length 6.95589   
     axis 0 0 -20   XYZ
    dof rx ry rz
    limits (-160.0 20.0)
           (-70.0 70.0)
           (-70.0 60.0)
  end
  begin
     id 8 
     name rtibia
     direction -0.34202 -0.939693 0   
     length 7.32327   
     axis 0 0 -20   XYZ
    dof rx
    limits (-10.0 170.0)
 end
 begin
     id 9 
     name rfoot
     direction -0.0660461 -0.18146 0.981178   
     length 1.85272  
     axis -90 -7.62852e-016 -20   XYZ
    dof rx rz
    limits (-45.0 90.0)
           (-20.0 70.0)
  end
  begin
     id 10 
     name rtoes
     direction -1.53586e-011 -4.21988e-011 1   
     length 0.93746   
     axis -90 -7.62852e-016 -20   XYZ
    dof rx
    limits (-90.0 20.0)
  end
  begin
     id 11 
     name lowerback
     direction -0.0107982 0.991059 0.13299   
     length 1.98691   
     axis 0 0 0   XYZ
    dof rx ry rz
    limits (-20.0 45.0)
           (-30.0 30.0)
           (-30.0 30.0)
  end
  begin
     id 12 
     name upperback
     direction 0.0076296 0.999916 0.0104576   
     length 1.99501   
     axis 0 0 0   XYZ
    dof rx ry rz
    limits (-20.0 45.0)
           (-30.0 30.0)
           (-30.0 30.0)
  end
  begin
     id 13 
     name thorax
     direction 0.01176 0.998615 -0.0512909   
     length 2.03144   
     axis 0 0 0   XYZ
    dof rx ry rz
    limits (-20.0 45.0)
           (-30.0 30.0)
           (-30.0 30.0)
  end
  begin
     id 14 
     name lowerneck
     direction -0.0171909 0.999644 0.0204011   
     length 1.71818   
     axis 0 0 0   XYZ
    dof rx ry rz
    limits (-20.0 45.0)
           (-30.0 30.0)
           (-30.0 30.0)
  end
  begin
     id 15 
     name upperneck
     direction 0.0250902 0.997482 -0.0663316   
     length 1.66199   
     axis 0 0 0   XYZ
    dof rx ry rz
    limits (-20.0 45.0)
           (-30.0 30.0)
           (-30.0 30.0)
  end
  begin
     id 16
     name head
     direction 0.00881535 0.99956 -0.0283365  
     length 1.81545  
     axis 0 0 0   XYZ
    dof rx ry rz
    limits (-20.0 45.0)
           (-30.0 30.0)
           (-30.0 30.0)
  end
  begin
     id 17 
     name lclavicle
     direction 0.840411 0.486876 -0.238035  
     length 3.30409  
     axis 0 0 0   XYZ
    dof ry rz
    limits (-20.0 10.0)
           (0.0 20.0)
  end
  begin
     id 18 
     name lhumerus
     direction 1 -4.48977e-011 -5.16239e-027   
     length 4.62672   
     axis 180 -30 -90   XYZ
    dof rx ry rz
    limits (-60.0 90.0)
           (-90.0 90.0)
           (-90.0 90.0)
  end
  begin
     id 19
     name lradius
     direction 1 -4.48977e-011 -8.71171e-027   
     length 3.11018   
     axis 180 -30 -90   XYZ
    dof rx
    limits (-10.0 170.0)
  end
  begin
     id 20
     name lwrist
     direction 1 -4.48912e-011 -1.03764e-026   
     length 1.55509   
     axis 9.09556e-015 90 90   XYZ
    dof ry
    limits (-180.0 0.0)
 end
  begin
     id 21 
     name lhand
     direction 1 -4.49072e-011 -2.07528e-026   
     length 0.743834   
     axis 1.3242e-014 90 90   XYZ
    dof rx rz
    limits (-90.0 90.0)
           (-45.0 45.0)
  end
  begin
     id 22 
     name lfingers
     direction 1 -4.48909e-011 -4.15056e-026   
     length 0.599698   
     axis 2.64841e-014 90 90   XYZ
    dof rx
    limits (0.0 90.0)
  end
  begin
     id 23
     name lthumb
     direction 0.707107 -6.35013e-011 0.707107   
     length 0.86105   
     axis -90 45 2.85299e-015   XYZ
    dof rx rz
    limits (-45.0 45.0)
           (-45.0 45.0)
  end
  begin
     id 24 
     name rclavicle
     direction -0.835208 0.500237 -0.228452   
     length 3.2716  
     axis 0 0 0   XYZ 
    dof ry rz
    limits (-10.0 20.0)
           (-20.0 0.0)
  end
  begin
     id 25 
     name rhumerus
     direction -1 -4.48978e-011 -5.1953e-028  
     length 4.55919   
     axis 180 30 90   XYZ
    dof rx ry rz
    limits (-90.0 60.0)
           (-90.0 90.0)
           (-90.0 90.0)
  end
  begin
     id 26 
     name rradius
     direction -1 -4.48961e-011 -5.99546e-027   
     length 3.22748   
     axis 180 30 90   XYZ
    dof rx
    limits (-10.0 170.0)
  end
  begin
     id 27 
     name rwrist
     direction -1 -4.48986e-011 -1.03764e-026   
     length 1.61374   
     axis 9.09556e-015 -90 -90   XYZ
    dof ry
    limits (-180.0 0.0)
  end
  begin
     id 28
     name rhand
     direction -1 -4.4899e-011 -2.07528e-026   
     length 0.700882   
     axis 1.3242e-014 -90 -90   XYZ
    dof rx rz
    limits (-90.0 90.0)
           (-45.0 45.0)
  end
  begin
     id 29
     name rfingers
     direction -1 -4.48991e-011 -4.15056e-026   
     length 0.565069   
     axis 2.64841e-014 -90 -90   XYZ
    dof rx
    limits (0.0 90.0)
  end
  begin
     id 30
     name rthumb
     direction -0.707107 -6.34804e-011 0.707107   
     length 0.811329   
     axis -90 -45 -2.85299e-015   XYZ
    dof rx rz
    limits (-45.0 45.0)
           (-45.0 45.0)
  end
:hierarchy
  begin
    root lhipjoint rhipjoint lowerback
    lhipjoint lfemur
    lfemur ltibia
    ltibia lfoot
    lfoot ltoes
    rhipjoint rfemur
    rfemur rtibia
    rtibia rfoot
    rfoot rtoes
    lowerback upperback
    upperback thorax
    thorax lowerneck lclavicle rclavicle
    lowerneck upperneck
    upperneck head
    lclavicle lhumerus
    lhumerus lradius
    lradius lwrist
    lwrist lhand lthumb
    lhand lfingers
    rclavicle rhumerus
    rhumerus rradius
    rradius rwrist
    rwrist rhand rthumb
    rhand rfingers
  end

#!OML:ASF F:\VICON\USERDATA\INSTALL\SteveWalk\SteveWalk.ASF
:FULLY-SPECIFIED
:DEGREES
32
root -0.82543 16.074 -39.6019 18.1481 -6.50188 0.0356531
lowerback -16.3791 1.72516 -0.498932
upperback -4.8254 2.34939 -0.130507
thorax 4.0174 1.15545 0.600988
lowerneck -2.16117 -0.45875 0.697689
upperneck 6.71798 -0.516366 -1.99877
head 2.48442 -0.298089 -0.770209
rclavicle -2.20371e-015 -4.96962e-016
rhumerus -23.1582 7.66242 -87.0929
rradius 57.6273
rwrist -15.5551
rhand -16.4601 -33.1296
rfingers 7.12502
rthumb 9.75622 -62.8836
lclavicle -2.20371e-015 -4.96962e-016
lhumerus -59.8158 29.1403 53.0336
lradius 12.6746
lwrist -36.664
lhand -15.4044 -19.2436
lfingers 7.12502
lthumb 10.7747 10.46
rfemur 0.279699 -5.44883 19.2802
rtibia 20.3898
rfoot -20.9997 17.6305
rtoes -7.64938
lfemur -47.6524 5.49853 -23.2155
ltibia 13.32
lfoot -9.95382 -1.07925
ltoes -2.16861
33
root -0.819178 16.0407 -39.3487 18.1286 -6.21575 0.220088
lowerback -16.2288 1.67111 -0.783415
upperback -5.08468 2.32988 -0.307642
thorax 3.6595 1.14858 0.561117
lowerneck -2.12228 -0.563916 0.615947
upperneck 6.82625 -0.676385 -1.62473
head 2.51102 -0.369014 -0.641615
rclavicle -5.72049e-015 9.98893e-015
rhumerus -24.1779 7.13387 -87.149
rradius 57.6318
rwrist -15.3211
rhand -16.5539 -33.1154
rfingers 7.12502
rthumb 9.66576 -62.8736
lclavicle -5.72049e-015 9.98893e-015
lhumerus -61.616 30.5893 49.446
lradius 12.2845
lwrist -38.7214
lhand -14.8515 -19.4405
lfingers 7.12502
lthumb 11.308 10.2346
rfemur 1.0201 -5.03965 18.9784
rtibia 20.7502
rfoot -19.9963 17.5472
rtoes -7.35827
lfemur -48.1011 5.22023 -23.7071
ltibia 15.4435
lfoot -9.66483 -1.65086
ltoes -4.59541
34
root -0.811953 16.0124 -39.0888 18.1372 -5.94914 0.353918
lowerback -16.5078 1.63671 -1.08785
upperback -5.15226 2.34237 -0.445546
thorax 3.72977 1.15408 0.597953
lowerneck -2.23893 -0.659096 0.634041
upperneck 7.08544 -0.818851 -1.37874
head 2.61763 -0.43301 -0.572843
rclavicle 7.19769e-015 1.2511e-014
rhumerus -25.0218 6.38037 -87.1121
rradius 57.4209
rwrist -15.1646
rhand -16.3719 -32.6487
rfingers 7.12502
rthumb 9.84135 -62.3987
lclavicle 7.19769e-015 1.2511e-014
lhumerus -63.3227 32.1983 45.7225
lradius 11.8454
lwrist -40.9912
lhand -14.3389 -19.2642
lfingers 7.12502
lthumb 11.8023 10.3832
rfemur 1.66518 -4.54752 18.786
rtibia 21.1618
rfoot -19.084 17.1722
rtoes -12.0686
lfemur -48.5326 4.8805 -24.0999
ltibia 17.6886
lfoot -8.00858 -2.02356
ltoes -11.9242
35
root -0.80783 16.0045 -38.819 18.2177 -5.69035 0.369709
lowerback -16.9266 1.63206 -1.41344
upperback -5.34859 2.39502 -0.493273
thorax 3.73154 1.18091 0.751146
lowerneck -1.85461 -0.806779 0.627266
upperneck 7.19365 -1.03158 -1.12147
head 2.58129 -0.53029 -0.493524
rclavicle 1.92903e-015 6.80837e-015
rhumerus -26.3854 5.70952 -86.9869
rradius 57.3727
rwrist -15.4086
rhand -16.1701 -31.9619
rfingers 7.12502
rthumb 10.0361 -61.7026
lclavicle 1.92903e-015 6.80837e-015
lhumerus -64.8712 33.0208 42.8919
lradius 11.5791
lwrist -42.5146
lhand -14.1419 -18.9399
lfingers 7.12502
lthumb 11.9923 10.6965
rfemur 2.16473 -4.04015 18.7435
rtibia 21.7018
rfoot -17.71 17.0781
rtoes -15.2971
lfemur -48.899 4.46215 -24.1436
ltibia 19.8247
lfoot -5.81779 -2.55618
ltoes -16.4714
36
root -0.80672 16.0103 -38.5559 18.3038 -5.4796 0.443257
lowerback -16.9624 1.59088 -1.8717
upperback -5.64531 2.414 -0.530471
thorax 3.4174 1.19688 0.968901
lowerneck -1.7033 -0.94051 0.491876
upperneck 7.29398 -1.23029 -0.733489
head 2.58762 -0.620899 -0.351633
rclavicle 4.57709e-014 -4.22417e-015
rhumerus -27.7781 5.76228 -87.1138
rradius 56.614
rwrist -13.7345
rhand -16.8246 -28.961
rfingers 7.12502
rthumb 9.40455 -58.7312
lclavicle 4.57709e-014 -4.22417e-015
lhumerus -66.3771 33.7083 40.269
lradius 11.3819
lwrist -44.019
lhand -14.1674 -18.6438
lfingers 7.12502
lthumb 11.9677 10.994
rfemur 2.47753 -3.64239 18.628
rtibia 22.4361
rfoot -15.6337 17.3834
rtoes -15.3149
lfemur -49.3542 3.80673 -23.8347
ltibia 21.8951
lfoot -3.81114 -3.24027
ltoes -14.6605
37
root -0.80338 16.0164 -38.2964 18.3326 -5.25792 0.673471
lowerback -18.0204 1.43779 -2.32398
upperback -5.08625 2.33452 -0.657518
thorax 4.55954 1.13687 1.12069
lowerneck -2.13873 -1.01323 0.47224
upperneck 6.82309 -1.35423 -0.365138
head 2.51217 -0.672778 -0.23499
rclavicle 6.80867e-015 -1.33186e-014
rhumerus -27.2597 4.84102 -86.8078
rradius 56.5364
rwrist -15.5231
rhand -15.2611 -33.9625
rfingers 7.12502
rthumb 10.9129 -63.6589
lclavicle 6.80867e-015 -1.33186e-014
lhumerus -68.1421 36.4225 35.8626
lradius 10.9655
lwrist -47.242
lhand -13.9871 -18.2501
lfingers 7.12502
lthumb 12.1416 11.3776
rfemur 2.51402 -3.24944 18.4049
rtibia 23.6047
rfoot -12.6943 17.6434
rtoes -13.9736
lfemur -49.7894 2.95049 -23.4704
ltibia 23.843
lfoot -2.31183 -3.80168
ltoes -10.4343
38
root -0.800739 16.0148 -38.0368 18.3521 -5.03305 1.08405
lowerback -17.9903 1.3055 -2.98651
upperback -5.30447 2.28443 -0.864772
thorax 4.29374 1.11639 1.25967
lowerneck -2.22603 -1.14305 0.404056
upperneck 7.04513 -1.55609 0.0856672
head 2.60579 -0.760987 -0.0875578
rclavicle 1.77105e-014 -1.63003e-014
rhumerus -28.265 4.1662 -86.8278
rradius 56.0064
rwrist -15.1304
rhand -14.6067 -34.4423
rfingers 7.12502
rthumb 11.5441 -64.1043
lclavicle 1.77105e-014 -1.63003e-014
lhumerus -70.152 37.506 32.183
lradius 10.7483
lwrist -49.3046
lhand -13.6955 -17.6191
lfingers 7.12502
lthumb 12.4227 11.9918
rfemur 2.16971 -2.85246 18.0579
rtibia 25.4151
rfoot -9.42103 17.7474
rtoes -12.5348
lfemur -50.1181 2.42932 -23.6278
ltibia 25.6165
lfoot -1.27197 -4.45585
ltoes -7.92969
39
root -0.801888 16.0066 -37.7939 18.4619 -4.52589 1.61905
lowerback -17.5714 1.11292 -3.78203
upperback -5.78416 2.15081 -1.10008
thorax 3.54427 1.07043 1.41089
lowerneck -2.33677 -1.2999 0.107742
upperneck 7.60729 -1.80507 0.77659
head 2.82572 -0.868911 0.173243
rclavicle -2.0773e-014 9.74045e-015
rhumerus -29.7878 3.21647 -86.8279
rradius 55.2871
rwrist -15.2237
rhand -14.6236 -33.821
rfingers 7.12502
rthumb 11.5278 -63.484
lclavicle -2.0773e-014 9.74045e-015
lhumerus -71.3925 37.6728 29.9059
lradius 10.6651
lwrist -50.4425
lhand -13.357 -16.7995
lfingers 7.12502
lthumb 12.7491 12.7912
rfemur 1.37248 -2.75296 17.7259
rtibia 27.7782
rfoot -6.74966 17.812
rtoes -15.2657
lfemur -50.5053 1.97788 -24.1807
ltibia 27.348
lfoot -0.727899 -5.08492
ltoes -9.90999
40
root -0.802435 15.9919 -37.5631 18.6112 -3.64175 2.08072
lowerback -17.9975 0.760527 -4.33182
upperback -5.61374 1.82351 -1.30476
thorax 3.95351 0.898732 1.45272
lowerneck -2.658 -1.41485 -0.0876048
upperneck 7.54251 -1.99162 1.34581
head 2.87471 -0.947523 0.381403
rclavicle 2.93518e-015 -1.21259e-014
rhumerus -30.3078 2.21482 -86.796
rradius 54.3815
rwrist -15.1335
rhand -14.7388 -32.8331
rfingers 7.12502
rthumb 11.4166 -62.5023
lclavicle 2.93518e-015 -1.21259e-014
lhumerus -72.6453 39.1068 26.899
lradius 10.4731
lwrist -52.4506
lhand -13.0642 -16.371
lfingers 7.12502
lthumb 13.0313 13.202
rfemur 0.319173 -3.03854 17.5528
rtibia 30.5644
rfoot -4.18742 17.6102
rtoes -20.599
lfemur -50.8881 1.20673 -24.6338
ltibia 29.0984
lfoot -0.90589 -5.35334
ltoes -12.6942
41
root -0.797078 15.9726 -37.3262 18.56 -2.96337 2.47506
lowerback -17.81 0.473784 -4.85393
upperback -5.69363 1.53237 -1.43668
thorax 3.77224 0.761325 1.54301
lowerneck -2.74855 -1.54844 -0.150384
upperneck 7.57878 -2.18626 1.58655
head 2.91025 -1.03736 0.462432
rclavicle 1.77664e-015 1.59028e-015
rhumerus -31.38 1.51322 -86.77
rradius 53.8355
rwrist -14.6255
rhand -15.5948 -32.0067
rfingers 7.12502
rthumb 10.5911 -61.7198
lclavicle 1.77664e-015 1.59028e-015
lhumerus -73.7833 39.8287 24.6303
lradius 10.3178
lwrist -53.7875
lhand -13.0102 -16.3955
lfingers 7.12502
lthumb 13.0833 13.1741
rfemur -0.71423 -3.43716 17.2237
rtibia 33.6597
rfoot -0.909745 17.0619
rtoes -23.3086
lfemur -50.9016 0.371577 -24.9493
ltibia 30.7727
lfoot -1.71698 -5.4042
ltoes -12.1283
42
root -0.797709 15.9674 -37.0962 18.3089 -2.54361 2.93811
lowerback -17.397 0.250009 -5.5208
upperback -5.65589 1.33646 -1.6135
thorax 3.59112 0.66996 1.68547
lowerneck -2.96416 -1.62381 -0.201326
upperneck 7.4915 -2.31115 1.94892
head 2.92925 -1.08806 0.582312
rclavicle -4.82053e-015 1.19271e-014
rhumerus -32.2469 0.879535 -86.9025
rradius 53.1624
rwrist -14.1829
rhand -15.1696 -35.3039
rfingers 7.12502
rthumb 11.0011 -64.9956
lclavicle -4.82053e-015 1.19271e-014
lhumerus -73.7311 40.1178 24.1898
lradius 10.3442
lwrist -53.766
lhand -12.6842 -16.6668
lfingers 7.12502
lthumb 13.3976 12.8824
rfemur -1.84037 -3.71435 16.7364
rtibia 36.9647
rfoot 3.10154 16.5854
rtoes -22.7823
lfemur -50.5455 -0.172559 -25.3901
ltibia 32.2693
lfoot -2.91741 -5.91377
ltoes -9.85935
43
root -0.794647 15.9756 -36.8672 18.0386 -2.26171 3.43463
lowerback -17.0916 0.0926463 -6.19794
upperback -5.53149 1.23618 -1.80509
thorax 3.55423 0.620633 1.84052
lowerneck -3.10775 -1.67365 -0.279416
upperneck 7.22257 -2.39975 2.36907
head 2.87491 -1.12129 0.72747
rclavicle -1.50207e-014 9.93923e-015
rhumerus -32.8515 -0.0725214 -86.8422
rradius 52.0669
rwrist -13.6934
rhand -15.3191 -35.0906
rfingers 7.12502
rthumb 10.8569 -64.7899
lclavicle -1.50207e-014 9.93923e-015
lhumerus -73.1675 40.4377 24.4793
lradius 10.4648
lwrist -53.3194
lhand -11.9498 -16.6878
lfingers 7.12502
lthumb 14.1054 12.8134
rfemur -3.16555 -3.84125 16.132
rtibia 40.4046
rfoot 6.64807 16.6815
rtoes -21.7618
lfemur -50.0028 -0.849256 -25.7538
ltibia 33.521
lfoot -3.96405 -6.0402
ltoes -7.67826
44
root -0.791688 15.9845 -36.64 17.8567 -2.08259 3.94972
lowerback -16.973 -0.04755 -6.93913
upperback -5.45279 1.17727 -1.96543
thorax 3.56235 0.591163 2.07466
lowerneck -3.01014 -1.80737 -0.231677
upperneck 7.0527 -2.58395 2.46024
head 2.80298 -1.21073 0.742898
rclavicle -2.91965e-016 1.19271e-015
rhumerus -33.4419 -1.17842 -86.5964
rradius 50.7324
rwrist -13.4406
rhand -15.2235 -34.0576
rfingers 7.12502
rthumb 10.9492 -63.7521
lclavicle -2.91965e-016 1.19271e-015
lhumerus -72.6008 40.7581 24.8246
lradius 10.4888
lwrist -53.1036
lhand -11.6127 -16.4931
lfingers 7.12502
lthumb 14.4302 12.9852
rfemur -4.70085 -3.87846 15.4906
rtibia 43.9698
rfoot 9.18409 17.2749
rtoes -21.1236
lfemur -49.4179 -1.4424 -26.1566
ltibia 34.4857
lfoot -4.68784 -5.91411
ltoes -5.6194
45
root -0.788707 15.9969 -36.414 17.5948 -2.09668 4.33471
lowerback -16.3891 -0.0983506 -7.39715
upperback -5.57296 1.13198 -2.1695
thorax 3.11926 0.586395 2.09791
lowerneck -2.98629 -1.90376 -0.0960889
upperneck 7.1077 -2.71856 2.40994
head 2.81579 -1.2754 0.698764
rclavicle -1.31695e-015 9.54166e-015
rhumerus -34.3337 -1.96708 -86.6326
rradius 49.4067
rwrist -13.7258
rhand -15.3506 -34.5582
rfingers 7.12502
rthumb 10.8266 -64.2591
lclavicle -1.31695e-015 9.54166e-015
lhumerus -71.7792 40.602 25.6834
lradius 10.5906
lwrist -52.2143
lhand -11.4329 -16.5575
lfingers 7.12502
lthumb 14.6034 12.9083
rfemur -6.27078 -3.7531 14.9351
rtibia 47.5789
rfoot 11.4943 17.88
rtoes -20.4115
lfemur -48.6152 -1.79131 -26.491
ltibia 35.247
lfoot -5.50295 -5.68746
ltoes -4.59543
46
root -0.779808 16.0157 -36.1911 17.352 -2.21584 4.61724
lowerback -16.0682 -0.142872 -7.71203
upperback -5.46003 1.10199 -2.26911
thorax 3.06479 0.571631 2.16015
lowerneck -3.23528 -1.89495 -0.150396
upperneck 6.95074 -2.70101 2.40184
head 2.80984 -1.26807 0.704281
rclavicle 3.54085e-016 -2.38542e-014
rhumerus -34.8765 -2.29179 -86.8003
rradius 48.2279
rwrist -14.452
rhand -15.4381 -35.9048
rfingers 7.12502
rthumb 10.7422 -65.6101
lclavicle 3.54085e-016 -2.38542e-014
lhumerus -70.6141 40.8123 27.1555
lradius 10.8124
lwrist -50.931
lhand -11.0243 -16.0718
lfingers 7.12502
lthumb 14.9971 13.3651
rfemur -7.98192 -3.60791 14.444
rtibia 51.1411
rfoot 13.7601 17.9336
rtoes -21.0762
lfemur -47.7555 -1.96685 -26.8214
ltibia 35.8781
lfoot -6.51379 -5.30838
ltoes -4.64982
